<svg width="528" height="512" viewBox="0 0 528 512" fill="none" xmlns="http://www.w3.org/2000/svg">
<path d="M292.443 455.543C277.632 450.788 265.065 445.807 264.616 444.222C263.494 441.051 270.451 403.237 273.368 394.859C274.939 390.33 276.959 389.651 287.731 389.651H300.298L304.786 400.519C313.763 421.125 329.247 460.299 329.247 462.336C329.247 465.733 320.046 464.148 292.443 455.543Z" fill="#AAA334"/>
<path d="M239.481 345.722C186.071 333.947 146.798 304.511 108.872 247.449C91.1433 220.729 78.8004 204.652 46.4847 165.479C16.1887 128.796 12.3736 122.456 20.677 122.456C22.4723 122.456 24.0432 123.588 24.0432 124.947C24.0432 129.476 143.208 249.034 161.61 263.073C182.929 279.376 210.532 292.962 231.627 298.17C243.745 300.888 253.62 301.567 274.266 300.661C334.409 297.718 361.563 281.641 414.525 217.559C434.947 193.104 476.912 138.76 495.988 112.493C506.984 97.5483 515.063 93.6989 506.984 107.285C504.516 111.361 482.747 148.27 458.286 189.255C406.446 276.433 405.549 278.244 391.635 293.415C370.764 316.738 343.834 333.494 313.538 342.552C294.463 348.213 258.781 349.798 239.481 345.722Z" fill="#AAA334"/>
<path d="M135.128 144.194C104.159 136.948 66.0087 117.475 27.4093 88.9438C11.2515 77.1691 3.84576 68.1117 10.3538 68.1117C11.7003 68.1117 19.5548 72.8668 27.8582 78.7542C48.2799 92.7932 70.2726 102.756 94.7338 108.87C132.211 118.38 183.826 112.267 233.647 92.7932C280.325 74.4519 292.668 72.6404 375.252 72.6404C461.428 72.6404 485.216 69.2439 506.76 54.5255C517.98 46.8267 520 46.3738 520 50.9026C520 55.6577 507.657 64.7151 493.07 70.376C455.144 85.5472 392.308 102.756 343.834 111.134C317.802 115.663 280.774 125.173 272.695 129.476C270.451 130.608 256.986 134.684 242.399 138.533C220.182 144.194 210.532 145.553 182.256 146.458C158.468 147.138 144.554 146.458 135.128 144.194Z" fill="#AAA334"/>
<path d="M292.443 455.543C277.632 450.788 265.065 445.807 264.616 444.222C263.494 441.051 270.451 403.237 273.368 394.859C274.939 390.33 276.959 389.651 287.731 389.651H300.298L304.786 400.519C313.763 421.125 329.247 460.299 329.247 462.336C329.247 465.733 320.046 464.148 292.443 455.543Z" stroke="#AAA334" stroke-width="16"/>
<path d="M239.481 345.722C186.071 333.947 146.798 304.511 108.872 247.449C91.1433 220.729 78.8004 204.652 46.4847 165.479C16.1887 128.796 12.3736 122.456 20.677 122.456C22.4723 122.456 24.0432 123.588 24.0432 124.947C24.0432 129.476 143.208 249.034 161.61 263.073C182.929 279.376 210.532 292.962 231.627 298.17C243.745 300.888 253.62 301.567 274.266 300.661C334.409 297.718 361.563 281.641 414.525 217.559C434.947 193.104 476.912 138.76 495.988 112.493C506.984 97.5483 515.063 93.6989 506.984 107.285C504.516 111.361 482.747 148.27 458.286 189.255C406.446 276.433 405.549 278.244 391.635 293.415C370.764 316.738 343.834 333.494 313.538 342.552C294.463 348.213 258.781 349.798 239.481 345.722Z" stroke="#AAA334" stroke-width="16"/>
<path d="M135.128 144.194C104.159 136.948 66.0087 117.475 27.4093 88.9438C11.2515 77.1691 3.84576 68.1117 10.3538 68.1117C11.7003 68.1117 19.5548 72.8668 27.8582 78.7542C48.2799 92.7932 70.2726 102.756 94.7338 108.87C132.211 118.38 183.826 112.267 233.647 92.7932C280.325 74.4519 292.668 72.6404 375.252 72.6404C461.428 72.6404 485.216 69.2439 506.76 54.5255C517.98 46.8267 520 46.3738 520 50.9026C520 55.6577 507.657 64.7151 493.07 70.376C455.144 85.5472 392.308 102.756 343.834 111.134C317.802 115.663 280.774 125.173 272.695 129.476C270.451 130.608 256.986 134.684 242.399 138.533C220.182 144.194 210.532 145.553 182.256 146.458C158.468 147.138 144.554 146.458 135.128 144.194Z" stroke="#AAA334" stroke-width="16"/>
</svg>
