<svg width="256" height="256" viewBox="0 0 256 256" fill="none" xmlns="http://www.w3.org/2000/svg">
<path d="M141.602 223.781C134.429 221.498 128.342 219.107 128.125 218.346C127.581 216.825 130.951 198.674 132.364 194.652C133.125 192.478 134.103 192.152 139.32 192.152H145.407L147.58 197.369C151.928 207.26 159.427 226.063 159.427 227.042C159.427 228.672 154.971 227.911 141.602 223.781Z" fill="#AAA334"/>
<path d="M115.952 171.067C90.0837 165.415 71.0631 151.285 52.6946 123.895C44.1082 111.07 38.1303 103.353 22.479 84.55C7.80599 66.9423 5.95827 63.899 9.97977 63.899C10.8493 63.899 11.6101 64.4425 11.6101 65.0946C11.6101 67.2684 69.3241 124.656 78.2366 131.395C88.5621 139.221 101.931 145.742 112.148 148.242C118.017 149.546 122.799 149.872 132.799 149.437C161.927 148.024 175.079 140.308 200.729 109.548C210.62 97.81 230.945 71.7246 240.184 59.1167C245.509 51.9432 249.422 50.0955 245.509 56.6168C244.314 58.5732 233.771 76.2896 221.924 95.9623C196.817 137.808 196.382 138.677 189.643 145.959C179.535 157.154 166.492 165.197 151.819 169.545C142.581 172.262 125.299 173.023 115.952 171.067Z" fill="#AAA334"/>
<path d="M65.4112 74.3332C50.4121 70.8551 31.9349 61.5079 13.2404 47.813C5.41478 42.1612 1.82804 37.8136 4.98002 37.8136C5.63216 37.8136 9.43628 40.0961 13.4578 42.922C23.3485 49.6607 34 54.4431 45.8472 57.3777C63.9983 61.9426 88.9968 59.008 113.126 49.6607C135.733 40.8569 141.711 39.9874 181.709 39.9874C223.445 39.9874 234.966 38.3571 245.401 31.2923C250.835 27.5968 251.813 27.3794 251.813 29.5532C251.813 31.8357 245.835 36.1833 238.77 38.9005C220.402 46.1827 189.969 54.4431 166.492 58.4646C153.884 60.6383 135.951 65.2033 132.038 67.2684C130.951 67.8118 124.429 69.7682 117.365 71.6159C106.604 74.3332 101.931 74.9853 88.2359 75.4201C76.7149 75.7461 69.9762 75.4201 65.4112 74.3332Z" fill="#AAA334"/>
</svg>
