<svg width="234" height="37" viewBox="0 0 234 37" fill="none" xmlns="http://www.w3.org/2000/svg">
<path d="M18.7777 30.4715C17.852 30.1743 17.0665 29.8629 17.0385 29.7638C16.9684 29.5657 17.4032 27.2023 17.5855 26.6787C17.6837 26.3956 17.8099 26.3532 18.4832 26.3532H19.2686L19.5491 27.0325C20.1102 28.3203 21.078 30.7687 21.078 30.896C21.078 31.1083 20.5029 31.0092 18.7777 30.4715Z" fill="#AAA334"/>
<path d="M15.4676 23.6076C12.1294 22.8717 9.67488 21.0319 7.3045 17.4656C6.19645 15.7956 5.42503 14.7908 3.40529 12.3424C1.51179 10.0498 1.27335 9.65352 1.79231 9.65352C1.90452 9.65352 2.0027 9.72428 2.0027 9.80919C2.0027 10.0922 9.45047 17.5646 10.6006 18.4421C11.9331 19.461 13.6582 20.3102 14.9767 20.6357C15.7341 20.8055 16.3512 20.8479 17.6416 20.7913C21.4006 20.6073 23.0977 19.6025 26.4078 15.5975C27.6842 14.069 30.307 10.6725 31.4992 9.03082C32.1865 8.09677 32.6914 7.85618 32.1865 8.70532C32.0322 8.96006 30.6717 11.2669 29.1429 13.8284C25.9029 19.277 25.8468 19.3903 24.9772 20.3385C23.6728 21.7961 21.9896 22.8434 20.0961 23.4095C18.9039 23.7633 16.6738 23.8624 15.4676 23.6076Z" fill="#AAA334"/>
<path d="M8.94553 11.0121C7.00995 10.5593 4.62554 9.34217 2.21308 7.55899C1.20322 6.82307 0.74036 6.25698 1.14711 6.25698C1.23127 6.25698 1.72218 6.55418 2.24113 6.92213C3.51749 7.79957 4.89204 8.42227 6.42086 8.80438C8.76319 9.39878 11.9892 9.01667 15.1029 7.79957C18.0203 6.65324 18.7917 6.54002 23.9533 6.54002C29.3392 6.54002 30.826 6.32774 32.1725 5.40785C32.8738 4.92667 33 4.89836 33 5.18141C33 5.47861 32.2286 6.0447 31.3169 6.3985C28.9465 7.3467 25.0192 8.42227 21.9896 8.9459C20.3626 9.22895 18.0484 9.82334 17.5434 10.0922C17.4032 10.163 16.5616 10.4177 15.6499 10.6583C14.2614 11.0121 13.6582 11.097 11.891 11.1537C10.4042 11.1961 9.53462 11.1537 8.94553 11.0121Z" fill="#AAA334"/>
<path d="M18.7777 30.4715C17.852 30.1743 17.0665 29.8629 17.0385 29.7638C16.9684 29.5657 17.4032 27.2023 17.5855 26.6787C17.6837 26.3956 17.8099 26.3532 18.4832 26.3532H19.2686L19.5491 27.0325C20.1102 28.3203 21.078 30.7687 21.078 30.896C21.078 31.1083 20.5029 31.0092 18.7777 30.4715Z" stroke="#AAA334" stroke-width="0.75"/>
<path d="M15.4676 23.6076C12.1294 22.8717 9.67488 21.0319 7.3045 17.4656C6.19645 15.7956 5.42503 14.7908 3.40529 12.3424C1.51179 10.0498 1.27335 9.65352 1.79231 9.65352C1.90452 9.65352 2.0027 9.72428 2.0027 9.80919C2.0027 10.0922 9.45047 17.5646 10.6006 18.4421C11.9331 19.461 13.6582 20.3102 14.9767 20.6357C15.7341 20.8055 16.3512 20.8479 17.6416 20.7913C21.4006 20.6073 23.0977 19.6025 26.4078 15.5975C27.6842 14.069 30.307 10.6725 31.4992 9.03082C32.1865 8.09677 32.6914 7.85618 32.1865 8.70532C32.0322 8.96006 30.6717 11.2669 29.1429 13.8284C25.9029 19.277 25.8468 19.3903 24.9772 20.3385C23.6728 21.7961 21.9896 22.8434 20.0961 23.4095C18.9039 23.7633 16.6738 23.8624 15.4676 23.6076Z" stroke="#AAA334" stroke-width="0.75"/>
<path d="M8.94553 11.0121C7.00995 10.5593 4.62554 9.34217 2.21308 7.55899C1.20322 6.82307 0.74036 6.25698 1.14711 6.25698C1.23127 6.25698 1.72218 6.55418 2.24113 6.92213C3.51749 7.79957 4.89204 8.42227 6.42086 8.80438C8.76319 9.39878 11.9892 9.01667 15.1029 7.79957C18.0203 6.65324 18.7917 6.54002 23.9533 6.54002C29.3392 6.54002 30.826 6.32774 32.1725 5.40785C32.8738 4.92667 33 4.89836 33 5.18141C33 5.47861 32.2286 6.0447 31.3169 6.3985C28.9465 7.3467 25.0192 8.42227 21.9896 8.9459C20.3626 9.22895 18.0484 9.82334 17.5434 10.0922C17.4032 10.163 16.5616 10.4177 15.6499 10.6583C14.2614 11.0121 13.6582 11.097 11.891 11.1537C10.4042 11.1961 9.53462 11.1537 8.94553 11.0121Z" stroke="#AAA334" stroke-width="0.75"/>
<path d="M43.176 13C42.9307 13 42.7173 12.9093 42.536 12.728C42.3547 12.5467 42.264 12.3333 42.264 12.088V2.232C42.264 1.98667 42.3547 1.77333 42.536 1.592C42.7173 1.41067 42.9307 1.32 43.176 1.32H43.576C43.8533 1.32 44.1093 1.39467 44.344 1.544C44.5787 1.69333 44.7493 1.89067 44.856 2.136L47.656 8.184C47.656 8.19467 47.6613 8.2 47.672 8.2C47.6827 8.2 47.688 8.19467 47.688 8.184L50.488 2.136C50.5947 1.89067 50.7653 1.69333 51 1.544C51.2347 1.39467 51.4907 1.32 51.768 1.32H52.232C52.4773 1.32 52.6907 1.41067 52.872 1.592C53.0533 1.77333 53.144 1.98667 53.144 2.232V12.088C53.144 12.3333 53.0533 12.5467 52.872 12.728C52.6907 12.9093 52.4773 13 52.232 13H51.88C51.6347 13 51.4213 12.9093 51.24 12.728C51.0587 12.5467 50.968 12.3333 50.968 12.088V5.128C50.968 5.11733 50.9627 5.112 50.952 5.112C50.9413 5.112 50.936 5.11733 50.936 5.128L49.016 9.24C48.8987 9.48533 48.7173 9.688 48.472 9.848C48.2373 9.99733 47.9867 10.072 47.72 10.072H47.624C47.3573 10.072 47.1013 9.99733 46.856 9.848C46.6213 9.688 46.4453 9.48533 46.328 9.24L44.408 5.128C44.408 5.11733 44.4027 5.112 44.392 5.112C44.3813 5.112 44.376 5.11733 44.376 5.128V12.088C44.376 12.3333 44.2853 12.5467 44.104 12.728C43.9227 12.9093 43.7093 13 43.464 13H43.176ZM59.4023 6.008C58.8583 6.008 58.4369 6.16267 58.1383 6.472C57.8503 6.77067 57.6689 7.256 57.5943 7.928C57.5943 8.01333 57.6369 8.056 57.7223 8.056H60.8583C60.9436 8.056 60.9863 8.01333 60.9863 7.928C60.9436 6.648 60.4156 6.008 59.4023 6.008ZM59.8023 13.16C58.4049 13.16 57.3276 12.7973 56.5703 12.072C55.8236 11.336 55.4503 10.2587 55.4503 8.84C55.4503 7.432 55.7863 6.36 56.4583 5.624C57.1303 4.888 58.1009 4.52 59.3703 4.52C61.7383 4.52 62.9543 5.864 63.0183 8.552C63.0289 8.808 62.9383 9.02133 62.7463 9.192C62.5543 9.36267 62.3303 9.448 62.0743 9.448H57.7063C57.6103 9.448 57.5729 9.496 57.5943 9.592C57.6689 10.3067 57.9036 10.8293 58.2983 11.16C58.7036 11.48 59.2903 11.64 60.0583 11.64C60.5383 11.64 61.0716 11.56 61.6583 11.4C61.8503 11.3467 62.0263 11.3787 62.1863 11.496C62.3569 11.6133 62.4423 11.7733 62.4423 11.976C62.4423 12.2213 62.3676 12.44 62.2183 12.632C62.0796 12.8133 61.8929 12.9253 61.6583 12.968C61.0609 13.096 60.4423 13.16 59.8023 13.16ZM65.5166 13C65.3246 13 65.1753 12.9147 65.0686 12.744C64.962 12.5627 64.9566 12.3867 65.0526 12.216L66.9886 8.856C67.042 8.78133 67.042 8.70133 66.9886 8.616L65.1486 5.464C65.0526 5.28267 65.0526 5.10667 65.1486 4.936C65.2553 4.76533 65.4046 4.68 65.5966 4.68H65.8846C66.1726 4.68 66.4393 4.75467 66.6846 4.904C66.93 5.04267 67.1166 5.22933 67.2446 5.464L68.5726 7.864C68.626 7.94933 68.6953 7.992 68.7806 7.992H69.1326C69.2286 7.992 69.2766 7.944 69.2766 7.848V5.592C69.2766 5.34667 69.362 5.13333 69.5326 4.952C69.714 4.77067 69.9273 4.68 70.1726 4.68H70.3966C70.6526 4.68 70.866 4.77067 71.0366 4.952C71.2073 5.13333 71.2926 5.34667 71.2926 5.592V7.848C71.2926 7.944 71.3406 7.992 71.4366 7.992H71.7886C71.8846 7.992 71.954 7.94933 71.9966 7.864L73.3246 5.464C73.4633 5.22933 73.6553 5.04267 73.9006 4.904C74.146 4.75467 74.4073 4.68 74.6846 4.68H74.9726C75.1753 4.68 75.3246 4.76533 75.4206 4.936C75.5273 5.10667 75.5273 5.28267 75.4206 5.464L73.5806 8.584C73.538 8.66933 73.538 8.74933 73.5806 8.824L75.5166 12.216C75.6233 12.3867 75.6233 12.5627 75.5166 12.744C75.41 12.9147 75.2553 13 75.0526 13H74.7646C74.498 13 74.242 12.9307 73.9966 12.792C73.7513 12.6427 73.5593 12.4453 73.4206 12.2L71.9966 9.656C71.954 9.57067 71.8846 9.528 71.7886 9.528H71.4366C71.3406 9.528 71.2926 9.576 71.2926 9.672V12.088C71.2926 12.3333 71.2073 12.5467 71.0366 12.728C70.866 12.9093 70.6526 13 70.3966 13H70.1726C69.9273 13 69.714 12.9093 69.5326 12.728C69.362 12.5467 69.2766 12.3333 69.2766 12.088V9.672C69.2766 9.576 69.2286 9.528 69.1326 9.528H68.7806C68.6953 9.528 68.626 9.57067 68.5726 9.656L67.1486 12.2C67.0206 12.4453 66.834 12.6427 66.5886 12.792C66.3433 12.9307 66.082 13 65.8046 13H65.5166ZM80.2883 11.336C80.2669 11.3573 80.2616 11.384 80.2723 11.416C80.2936 11.4373 80.3203 11.448 80.3523 11.448H83.2963C83.3923 11.448 83.4403 11.4053 83.4403 11.32V6.36C83.4403 6.27467 83.3923 6.232 83.2963 6.232H81.2483C81.1629 6.232 81.1203 6.27467 81.1203 6.36C81.1203 7.66133 81.1043 8.56267 81.0723 9.064C81.0403 9.55467 80.9709 9.95467 80.8643 10.264C80.7683 10.5627 80.5763 10.92 80.2883 11.336ZM78.0963 14.92C77.8509 14.92 77.6376 14.8293 77.4563 14.648C77.2856 14.4667 77.2003 14.2533 77.2003 14.008V12.056C77.2003 11.8853 77.2536 11.7413 77.3603 11.624C77.4776 11.5067 77.6216 11.448 77.7923 11.448C77.8563 11.448 77.9043 11.4267 77.9363 11.384C78.3309 10.8933 78.5976 10.4933 78.7363 10.184C78.8749 9.87467 78.9656 9.464 79.0082 8.952C79.0616 8.42933 79.0883 7.52267 79.0883 6.232V5.592C79.0883 5.34667 79.1789 5.13333 79.3603 4.952C79.5416 4.77067 79.7549 4.68 80.0003 4.68H84.5763C84.8216 4.68 85.0349 4.77067 85.2163 4.952C85.3976 5.13333 85.4883 5.34667 85.4883 5.592V11.32C85.4883 11.4053 85.5363 11.448 85.6323 11.448H85.6803C85.9256 11.448 86.1336 11.5387 86.3043 11.72C86.4856 11.9013 86.5763 12.1147 86.5763 12.36V14.008C86.5763 14.2533 86.4856 14.4667 86.3043 14.648C86.1336 14.8293 85.9256 14.92 85.6803 14.92H85.4403C85.1949 14.92 84.9816 14.8293 84.8003 14.648C84.6189 14.4667 84.5283 14.2533 84.5283 14.008V13.144C84.5283 13.048 84.4803 13 84.3843 13H79.3923C79.2963 13 79.2483 13.048 79.2483 13.144V14.008C79.2483 14.2533 79.1576 14.4667 78.9763 14.648C78.7949 14.8293 78.5816 14.92 78.3363 14.92H78.0963ZM91.209 12.872L88.329 5.528C88.2437 5.32533 88.2597 5.13333 88.377 4.952C88.505 4.77067 88.681 4.68 88.905 4.68H89.417C89.6837 4.68 89.9237 4.76 90.137 4.92C90.3503 5.08 90.4997 5.288 90.585 5.544L92.249 10.792C92.249 10.8027 92.2543 10.808 92.265 10.808C92.2757 10.808 92.281 10.8027 92.281 10.792L93.945 5.544C94.0197 5.288 94.1637 5.08 94.377 4.92C94.5903 4.76 94.8357 4.68 95.113 4.68H95.529C95.7423 4.68 95.913 4.77067 96.041 4.952C96.169 5.13333 96.1957 5.32533 96.121 5.528L93.305 13.048C92.8357 14.296 92.297 15.1867 91.689 15.72C91.0917 16.2533 90.265 16.5627 89.209 16.648C88.985 16.6587 88.7877 16.584 88.617 16.424C88.457 16.2747 88.377 16.088 88.377 15.864C88.377 15.64 88.457 15.4427 88.617 15.272C88.777 15.112 88.9743 15.0213 89.209 15C89.7317 14.936 90.137 14.7653 90.425 14.488C90.713 14.2213 90.9743 13.768 91.209 13.128C91.2197 13.0853 91.225 13.0427 91.225 13C91.225 12.9573 91.2197 12.9147 91.209 12.872ZM99 13C98.7547 13 98.5413 12.9093 98.36 12.728C98.1893 12.5467 98.104 12.3333 98.104 12.088V5.592C98.104 5.34667 98.1893 5.13333 98.36 4.952C98.5413 4.77067 98.7547 4.68 99 4.68H99.352C99.5973 4.68 99.8107 4.77067 99.992 4.952C100.173 5.13333 100.264 5.34667 100.264 5.592V7.736C100.264 7.832 100.312 7.88 100.408 7.88H103.096C103.192 7.88 103.24 7.832 103.24 7.736V5.592C103.24 5.34667 103.331 5.13333 103.512 4.952C103.693 4.77067 103.907 4.68 104.152 4.68H104.504C104.749 4.68 104.957 4.77067 105.128 4.952C105.309 5.13333 105.4 5.34667 105.4 5.592V12.088C105.4 12.3333 105.309 12.5467 105.128 12.728C104.957 12.9093 104.749 13 104.504 13H104.152C103.907 13 103.693 12.9093 103.512 12.728C103.331 12.5467 103.24 12.3333 103.24 12.088V9.528C103.24 9.432 103.192 9.384 103.096 9.384H100.408C100.312 9.384 100.264 9.432 100.264 9.528V12.088C100.264 12.3333 100.173 12.5467 99.992 12.728C99.8107 12.9093 99.5973 13 99.352 13H99ZM112.024 9C110.499 9 109.736 9.46933 109.736 10.408C109.736 10.7493 109.832 11.0267 110.024 11.24C110.227 11.4533 110.483 11.56 110.792 11.56C111.4 11.56 111.891 11.3733 112.264 11C112.637 10.616 112.824 10.0933 112.824 9.432V9.144C112.824 9.048 112.776 9 112.68 9H112.024ZM110.216 13.16C109.491 13.16 108.888 12.9253 108.408 12.456C107.939 11.976 107.704 11.3573 107.704 10.6C107.704 9.672 108.056 8.952 108.76 8.44C109.475 7.928 110.563 7.672 112.024 7.672H112.68C112.776 7.672 112.824 7.624 112.824 7.528V7.4C112.824 6.90933 112.707 6.568 112.472 6.376C112.237 6.17333 111.821 6.072 111.224 6.072C110.605 6.072 109.848 6.184 108.952 6.408C108.76 6.46133 108.584 6.42933 108.424 6.312C108.264 6.184 108.184 6.01867 108.184 5.816C108.184 5.57067 108.259 5.352 108.408 5.16C108.557 4.95733 108.749 4.83467 108.984 4.792C109.795 4.61067 110.557 4.52 111.272 4.52C112.637 4.52 113.592 4.76533 114.136 5.256C114.68 5.74667 114.952 6.60533 114.952 7.832V12.088C114.952 12.3333 114.861 12.5467 114.68 12.728C114.509 12.9093 114.301 13 114.056 13H113.88C113.624 13 113.405 12.9147 113.224 12.744C113.043 12.5627 112.947 12.344 112.936 12.088V11.864C112.936 11.8533 112.931 11.848 112.92 11.848C112.899 11.848 112.888 11.8533 112.888 11.864C112.237 12.728 111.347 13.16 110.216 13.16ZM119.685 7.752V9.928C119.685 10.3547 119.866 10.7333 120.229 11.064C120.602 11.3947 121.034 11.56 121.525 11.56C122.09 11.56 122.538 11.3307 122.869 10.872C123.199 10.4133 123.365 9.736 123.365 8.84C123.365 7.02667 122.751 6.12 121.525 6.12C121.034 6.12 120.602 6.28533 120.229 6.616C119.866 6.94667 119.685 7.32533 119.685 7.752ZM118.485 16.52C118.239 16.52 118.026 16.4293 117.845 16.248C117.663 16.0667 117.573 15.8533 117.573 15.608V5.592C117.573 5.34667 117.663 5.13333 117.845 4.952C118.026 4.77067 118.239 4.68 118.485 4.68H118.677C118.933 4.68 119.151 4.77067 119.333 4.952C119.514 5.12267 119.61 5.336 119.621 5.592V5.704C119.621 5.71467 119.626 5.72 119.637 5.72C119.647 5.72 119.658 5.71467 119.669 5.704C120.053 5.27733 120.437 4.97333 120.821 4.792C121.205 4.61067 121.653 4.52 122.165 4.52C123.167 4.52 123.967 4.89867 124.565 5.656C125.162 6.40267 125.461 7.464 125.461 8.84C125.461 10.1733 125.146 11.2293 124.517 12.008C123.898 12.776 123.114 13.16 122.165 13.16C121.237 13.16 120.431 12.824 119.749 12.152C119.738 12.1413 119.727 12.136 119.717 12.136C119.706 12.136 119.701 12.1413 119.701 12.152V15.608C119.701 15.8533 119.61 16.0667 119.429 16.248C119.258 16.4293 119.05 16.52 118.805 16.52H118.485ZM132.578 6.744C132.269 6.296 131.799 6.072 131.17 6.072C130.541 6.072 130.066 6.296 129.746 6.744C129.437 7.18133 129.282 7.88 129.282 8.84C129.282 9.8 129.437 10.504 129.746 10.952C130.066 11.3893 130.541 11.608 131.17 11.608C131.799 11.608 132.269 11.3893 132.578 10.952C132.898 10.504 133.058 9.8 133.058 8.84C133.058 7.88 132.898 7.18133 132.578 6.744ZM134.146 12.04C133.442 12.7867 132.45 13.16 131.17 13.16C129.89 13.16 128.893 12.7867 128.178 12.04C127.474 11.2827 127.122 10.216 127.122 8.84C127.122 7.464 127.474 6.40267 128.178 5.656C128.893 4.89867 129.89 4.52 131.17 4.52C132.45 4.52 133.442 4.89867 134.146 5.656C134.861 6.40267 135.218 7.464 135.218 8.84C135.218 10.216 134.861 11.2827 134.146 12.04ZM139.898 11.336C139.876 11.3573 139.871 11.384 139.882 11.416C139.903 11.4373 139.93 11.448 139.962 11.448H142.906C143.002 11.448 143.05 11.4053 143.05 11.32V6.36C143.05 6.27467 143.002 6.232 142.906 6.232H140.858C140.772 6.232 140.73 6.27467 140.73 6.36C140.73 7.66133 140.714 8.56267 140.682 9.064C140.65 9.55467 140.58 9.95467 140.474 10.264C140.378 10.5627 140.186 10.92 139.898 11.336ZM137.706 14.92C137.46 14.92 137.247 14.8293 137.066 14.648C136.895 14.4667 136.81 14.2533 136.81 14.008V12.056C136.81 11.8853 136.863 11.7413 136.97 11.624C137.087 11.5067 137.231 11.448 137.402 11.448C137.466 11.448 137.514 11.4267 137.546 11.384C137.94 10.8933 138.207 10.4933 138.346 10.184C138.484 9.87467 138.575 9.464 138.618 8.952C138.671 8.42933 138.698 7.52267 138.698 6.232V5.592C138.698 5.34667 138.788 5.13333 138.97 4.952C139.151 4.77067 139.364 4.68 139.61 4.68H144.186C144.431 4.68 144.644 4.77067 144.826 4.952C145.007 5.13333 145.098 5.34667 145.098 5.592V11.32C145.098 11.4053 145.146 11.448 145.242 11.448H145.29C145.535 11.448 145.743 11.5387 145.914 11.72C146.095 11.9013 146.186 12.1147 146.186 12.36V14.008C146.186 14.2533 146.095 14.4667 145.914 14.648C145.743 14.8293 145.535 14.92 145.29 14.92H145.05C144.804 14.92 144.591 14.8293 144.41 14.648C144.228 14.4667 144.138 14.2533 144.138 14.008V13.144C144.138 13.048 144.09 13 143.994 13H139.002C138.906 13 138.858 13.048 138.858 13.144V14.008C138.858 14.2533 138.767 14.4667 138.586 14.648C138.404 14.8293 138.191 14.92 137.946 14.92H137.706ZM149.234 13C148.989 13 148.776 12.9093 148.594 12.728C148.424 12.5467 148.338 12.3333 148.338 12.088V5.592C148.338 5.34667 148.424 5.13333 148.594 4.952C148.776 4.77067 148.989 4.68 149.234 4.68H149.586C149.832 4.68 150.045 4.77067 150.226 4.952C150.408 5.13333 150.498 5.34667 150.498 5.592V7.736C150.498 7.832 150.546 7.88 150.642 7.88H153.33C153.426 7.88 153.474 7.832 153.474 7.736V5.592C153.474 5.34667 153.565 5.13333 153.746 4.952C153.928 4.77067 154.141 4.68 154.386 4.68H154.738C154.984 4.68 155.192 4.77067 155.362 4.952C155.544 5.13333 155.634 5.34667 155.634 5.592V12.088C155.634 12.3333 155.544 12.5467 155.362 12.728C155.192 12.9093 154.984 13 154.738 13H154.386C154.141 13 153.928 12.9093 153.746 12.728C153.565 12.5467 153.474 12.3333 153.474 12.088V9.528C153.474 9.432 153.426 9.384 153.33 9.384H150.642C150.546 9.384 150.498 9.432 150.498 9.528V12.088C150.498 12.3333 150.408 12.5467 150.226 12.728C150.045 12.9093 149.832 13 149.586 13H149.234ZM167.154 13C166.909 13 166.696 12.9093 166.514 12.728C166.344 12.5467 166.258 12.3333 166.258 12.088V5.592C166.258 5.34667 166.344 5.13333 166.514 4.952C166.696 4.77067 166.909 4.68 167.154 4.68H167.426C167.672 4.68 167.885 4.77067 168.066 4.952C168.248 5.13333 168.338 5.34667 168.338 5.592V12.088C168.338 12.3333 168.248 12.5467 168.066 12.728C167.885 12.9093 167.672 13 167.426 13H167.154ZM161.314 11.608C161.997 11.608 162.493 11.4747 162.802 11.208C163.122 10.9307 163.282 10.504 163.282 9.928C163.282 8.936 162.621 8.44 161.298 8.44C161.064 8.44 160.813 8.46667 160.546 8.52C160.461 8.54133 160.418 8.59467 160.418 8.68V11.368C160.418 11.4533 160.461 11.5067 160.546 11.528C160.834 11.5813 161.09 11.608 161.314 11.608ZM161.618 6.888C162.802 6.888 163.709 7.16 164.338 7.704C164.978 8.248 165.298 8.98933 165.298 9.928C165.298 11.016 164.962 11.8267 164.29 12.36C163.618 12.8933 162.568 13.16 161.138 13.16C160.424 13.16 159.784 13.1227 159.218 13.048C158.962 13.016 158.749 12.8987 158.578 12.696C158.418 12.4933 158.338 12.264 158.338 12.008V5.592C158.338 5.34667 158.424 5.13333 158.594 4.952C158.776 4.77067 158.989 4.68 159.234 4.68H159.506C159.752 4.68 159.965 4.77067 160.146 4.952C160.328 5.13333 160.418 5.34667 160.418 5.592V6.856C160.418 6.888 160.429 6.92 160.45 6.952C160.482 6.984 160.514 6.99467 160.546 6.984C160.973 6.92 161.33 6.888 161.618 6.888ZM171.954 13C171.708 13 171.495 12.9093 171.314 12.728C171.132 12.5467 171.042 12.3333 171.042 12.088V5.592C171.042 5.34667 171.132 5.13333 171.314 4.952C171.495 4.77067 171.708 4.68 171.954 4.68H172.258C172.503 4.68 172.716 4.77067 172.898 4.952C173.079 5.13333 173.17 5.34667 173.17 5.592V10.088L173.186 10.104L173.202 10.088L175.778 5.464C176.076 4.94133 176.53 4.68 177.138 4.68H177.49C177.735 4.68 177.948 4.77067 178.13 4.952C178.311 5.13333 178.402 5.34667 178.402 5.592V12.088C178.402 12.3333 178.311 12.5467 178.13 12.728C177.948 12.9093 177.735 13 177.49 13H177.186C176.94 13 176.727 12.9093 176.546 12.728C176.364 12.5467 176.274 12.3333 176.274 12.088V7.592L176.258 7.576L176.242 7.592L173.666 12.216C173.367 12.7387 172.914 13 172.306 13H171.954ZM177.122 0.952H177.154C177.388 0.952 177.58 1.032 177.73 1.192C177.879 1.352 177.916 1.53867 177.842 1.752C177.65 2.34933 177.271 2.82933 176.706 3.192C176.151 3.544 175.49 3.72 174.722 3.72C173.954 3.72 173.287 3.544 172.722 3.192C172.167 2.82933 171.794 2.34933 171.602 1.752C171.527 1.53867 171.564 1.352 171.714 1.192C171.863 1.032 172.055 0.952 172.289 0.952H172.322C172.674 0.952 173.015 1.192 173.346 1.672C173.644 2.10933 174.103 2.328 174.722 2.328C175.34 2.328 175.799 2.10933 176.098 1.672C176.428 1.192 176.77 0.952 177.122 0.952ZM187.063 13C186.818 13 186.604 12.9093 186.423 12.728C186.242 12.5467 186.151 12.3333 186.151 12.088V5.592C186.151 5.34667 186.242 5.13333 186.423 4.952C186.604 4.77067 186.818 4.68 187.063 4.68H187.351C187.596 4.68 187.81 4.77067 187.991 4.952C188.172 5.13333 188.263 5.34667 188.263 5.592V11.32C188.263 11.4053 188.311 11.448 188.407 11.448H191.143C191.239 11.448 191.287 11.4053 191.287 11.32V5.592C191.287 5.34667 191.372 5.13333 191.543 4.952C191.724 4.77067 191.938 4.68 192.183 4.68H192.487C192.732 4.68 192.94 4.77067 193.111 4.952C193.292 5.13333 193.383 5.34667 193.383 5.592V11.32C193.383 11.4053 193.431 11.448 193.527 11.448H194.023C194.268 11.448 194.482 11.5387 194.663 11.72C194.844 11.9013 194.935 12.1147 194.935 12.36V14.008C194.935 14.2533 194.844 14.4667 194.663 14.648C194.482 14.8293 194.268 14.92 194.023 14.92H193.975C193.73 14.92 193.516 14.8293 193.335 14.648C193.154 14.4667 193.063 14.2533 193.063 14.008V13.144C193.063 13.048 193.02 13 192.935 13H187.063ZM200.402 6.008C199.858 6.008 199.437 6.16267 199.138 6.472C198.85 6.77067 198.669 7.256 198.594 7.928C198.594 8.01333 198.637 8.056 198.722 8.056H201.858C201.944 8.056 201.986 8.01333 201.986 7.928C201.944 6.648 201.416 6.008 200.402 6.008ZM200.802 13.16C199.405 13.16 198.328 12.7973 197.57 12.072C196.824 11.336 196.45 10.2587 196.45 8.84C196.45 7.432 196.786 6.36 197.458 5.624C198.13 4.888 199.101 4.52 200.37 4.52C202.738 4.52 203.954 5.864 204.018 8.552C204.029 8.808 203.938 9.02133 203.746 9.192C203.554 9.36267 203.33 9.448 203.074 9.448H198.706C198.61 9.448 198.573 9.496 198.594 9.592C198.669 10.3067 198.904 10.8293 199.298 11.16C199.704 11.48 200.29 11.64 201.058 11.64C201.538 11.64 202.072 11.56 202.658 11.4C202.85 11.3467 203.026 11.3787 203.186 11.496C203.357 11.6133 203.442 11.7733 203.442 11.976C203.442 12.2213 203.368 12.44 203.218 12.632C203.08 12.8133 202.893 12.9253 202.658 12.968C202.061 13.096 201.442 13.16 200.802 13.16ZM207.141 13C206.895 13 206.682 12.9093 206.501 12.728C206.33 12.5467 206.245 12.3333 206.245 12.088V5.592C206.245 5.34667 206.33 5.13333 206.501 4.952C206.682 4.77067 206.895 4.68 207.141 4.68H207.493C207.738 4.68 207.951 4.77067 208.133 4.952C208.314 5.13333 208.405 5.34667 208.405 5.592V7.736C208.405 7.832 208.453 7.88 208.549 7.88H211.237C211.333 7.88 211.381 7.832 211.381 7.736V5.592C211.381 5.34667 211.471 5.13333 211.653 4.952C211.834 4.77067 212.047 4.68 212.293 4.68H212.645C212.89 4.68 213.098 4.77067 213.269 4.952C213.45 5.13333 213.541 5.34667 213.541 5.592V12.088C213.541 12.3333 213.45 12.5467 213.269 12.728C213.098 12.9093 212.89 13 212.645 13H212.293C212.047 13 211.834 12.9093 211.653 12.728C211.471 12.5467 211.381 12.3333 211.381 12.088V9.528C211.381 9.432 211.333 9.384 211.237 9.384H208.549C208.453 9.384 208.405 9.432 208.405 9.528V12.088C208.405 12.3333 208.314 12.5467 208.133 12.728C207.951 12.9093 207.738 13 207.493 13H207.141ZM216.581 6.312C216.357 6.312 216.165 6.232 216.005 6.072C215.845 5.912 215.765 5.72 215.765 5.496C215.765 5.272 215.845 5.08 216.005 4.92C216.165 4.76 216.357 4.68 216.581 4.68H222.373C222.597 4.68 222.789 4.76 222.949 4.92C223.109 5.08 223.189 5.272 223.189 5.496C223.189 5.72 223.109 5.912 222.949 6.072C222.789 6.232 222.597 6.312 222.373 6.312H220.725C220.629 6.312 220.581 6.35467 220.581 6.44V12.088C220.581 12.3333 220.49 12.5467 220.309 12.728C220.127 12.9093 219.914 13 219.669 13H219.285C219.039 13 218.826 12.9093 218.645 12.728C218.463 12.5467 218.373 12.3333 218.373 12.088V6.44C218.373 6.35467 218.325 6.312 218.229 6.312H216.581ZM227.529 7.752V9.928C227.529 10.3547 227.71 10.7333 228.073 11.064C228.446 11.3947 228.878 11.56 229.369 11.56C229.934 11.56 230.382 11.3307 230.713 10.872C231.043 10.4133 231.209 9.736 231.209 8.84C231.209 7.02667 230.595 6.12 229.369 6.12C228.878 6.12 228.446 6.28533 228.073 6.616C227.71 6.94667 227.529 7.32533 227.529 7.752ZM226.329 16.52C226.083 16.52 225.87 16.4293 225.689 16.248C225.507 16.0667 225.417 15.8533 225.417 15.608V5.592C225.417 5.34667 225.507 5.13333 225.689 4.952C225.87 4.77067 226.083 4.68 226.329 4.68H226.521C226.777 4.68 226.995 4.77067 227.177 4.952C227.358 5.12267 227.454 5.336 227.465 5.592V5.704C227.465 5.71467 227.47 5.72 227.481 5.72C227.491 5.72 227.502 5.71467 227.513 5.704C227.897 5.27733 228.281 4.97333 228.665 4.792C229.049 4.61067 229.497 4.52 230.009 4.52C231.011 4.52 231.811 4.89867 232.409 5.656C233.006 6.40267 233.305 7.464 233.305 8.84C233.305 10.1733 232.99 11.2293 232.361 12.008C231.742 12.776 230.958 13.16 230.009 13.16C229.081 13.16 228.275 12.824 227.593 12.152C227.582 12.1413 227.571 12.136 227.561 12.136C227.55 12.136 227.545 12.1413 227.545 12.152V15.608C227.545 15.8533 227.454 16.0667 227.273 16.248C227.102 16.4293 226.894 16.52 226.649 16.52H226.329ZM43 35C42.7547 35 42.5413 34.9093 42.36 34.728C42.1893 34.5467 42.104 34.3333 42.104 34.088V27.592C42.104 27.3467 42.1893 27.1333 42.36 26.952C42.5413 26.7707 42.7547 26.68 43 26.68H43.448C44.056 26.68 44.4933 26.952 44.76 27.496L46.68 31.4C46.68 31.4107 46.6853 31.416 46.696 31.416L46.712 31.4L48.632 27.496C48.8987 26.952 49.336 26.68 49.944 26.68H50.424C50.6693 26.68 50.8773 26.7707 51.048 26.952C51.2293 27.1333 51.32 27.3467 51.32 27.592V34.088C51.32 34.3333 51.2293 34.5467 51.048 34.728C50.8773 34.9093 50.6693 35 50.424 35H50.136C49.8907 35 49.6773 34.9093 49.496 34.728C49.3147 34.5467 49.224 34.3333 49.224 34.088V29.512H49.192L47.896 32.168C47.6507 32.6587 47.2507 32.904 46.696 32.904C46.1413 32.904 45.7413 32.6587 45.496 32.168L44.184 29.512H44.168H44.152V34.088C44.152 34.3333 44.0613 34.5467 43.88 34.728C43.7093 34.9093 43.5013 35 43.256 35H43ZM57.4179 28.008C56.8739 28.008 56.4525 28.1627 56.1539 28.472C55.8659 28.7707 55.6845 29.256 55.6099 29.928C55.6099 30.0133 55.6525 30.056 55.7379 30.056H58.8739C58.9592 30.056 59.0019 30.0133 59.0019 29.928C58.9592 28.648 58.4312 28.008 57.4179 28.008ZM57.8179 35.16C56.4205 35.16 55.3432 34.7973 54.5859 34.072C53.8392 33.336 53.4659 32.2587 53.4659 30.84C53.4659 29.432 53.8019 28.36 54.4739 27.624C55.1459 26.888 56.1165 26.52 57.3859 26.52C59.7539 26.52 60.9699 27.864 61.0339 30.552C61.0445 30.808 60.9539 31.0213 60.7619 31.192C60.5699 31.3627 60.3459 31.448 60.0899 31.448H55.7219C55.6259 31.448 55.5885 31.496 55.6099 31.592C55.6845 32.3067 55.9192 32.8293 56.3139 33.16C56.7192 33.48 57.3059 33.64 58.0739 33.64C58.5539 33.64 59.0872 33.56 59.6739 33.4C59.8659 33.3467 60.0419 33.3787 60.2019 33.496C60.3725 33.6133 60.4579 33.7733 60.4579 33.976C60.4579 34.2213 60.3832 34.44 60.2339 34.632C60.0952 34.8133 59.9085 34.9253 59.6739 34.968C59.0765 35.096 58.4579 35.16 57.8179 35.16ZM65.7883 33.336C65.7669 33.3573 65.7616 33.384 65.7723 33.416C65.7936 33.4373 65.8203 33.448 65.8523 33.448H68.7963C68.8923 33.448 68.9403 33.4053 68.9403 33.32V28.36C68.9403 28.2747 68.8923 28.232 68.7963 28.232H66.7483C66.6629 28.232 66.6203 28.2747 66.6203 28.36C66.6203 29.6613 66.6043 30.5627 66.5723 31.064C66.5403 31.5547 66.4709 31.9547 66.3643 32.264C66.2683 32.5627 66.0763 32.92 65.7883 33.336ZM63.5963 36.92C63.3509 36.92 63.1376 36.8293 62.9563 36.648C62.7856 36.4667 62.7003 36.2533 62.7003 36.008V34.056C62.7003 33.8853 62.7536 33.7413 62.8603 33.624C62.9776 33.5067 63.1216 33.448 63.2923 33.448C63.3563 33.448 63.4043 33.4267 63.4363 33.384C63.8309 32.8933 64.0976 32.4933 64.2363 32.184C64.3749 31.8747 64.4656 31.464 64.5082 30.952C64.5616 30.4293 64.5883 29.5227 64.5883 28.232V27.592C64.5883 27.3467 64.6789 27.1333 64.8603 26.952C65.0416 26.7707 65.2549 26.68 65.5003 26.68H70.0763C70.3216 26.68 70.5349 26.7707 70.7163 26.952C70.8976 27.1333 70.9883 27.3467 70.9883 27.592V33.32C70.9883 33.4053 71.0363 33.448 71.1323 33.448H71.1803C71.4256 33.448 71.6336 33.5387 71.8043 33.72C71.9856 33.9013 72.0763 34.1147 72.0763 34.36V36.008C72.0763 36.2533 71.9856 36.4667 71.8043 36.648C71.6336 36.8293 71.4256 36.92 71.1803 36.92H70.9403C70.6949 36.92 70.4816 36.8293 70.3003 36.648C70.1189 36.4667 70.0283 36.2533 70.0283 36.008V35.144C70.0283 35.048 69.9803 35 69.8843 35H64.8923C64.7963 35 64.7483 35.048 64.7483 35.144V36.008C64.7483 36.2533 64.6576 36.4667 64.4763 36.648C64.2949 36.8293 64.0816 36.92 63.8363 36.92H63.5963ZM75.141 35C74.8957 35 74.6823 34.9093 74.501 34.728C74.3197 34.5467 74.229 34.3333 74.229 34.088V27.592C74.229 27.3467 74.3197 27.1333 74.501 26.952C74.6823 26.7707 74.8957 26.68 75.141 26.68H75.445C75.6903 26.68 75.9037 26.7707 76.085 26.952C76.2663 27.1333 76.357 27.3467 76.357 27.592V32.088L76.373 32.104L76.389 32.088L78.965 27.464C79.2637 26.9413 79.717 26.68 80.325 26.68H80.677C80.9223 26.68 81.1357 26.7707 81.317 26.952C81.4983 27.1333 81.589 27.3467 81.589 27.592V34.088C81.589 34.3333 81.4983 34.5467 81.317 34.728C81.1357 34.9093 80.9223 35 80.677 35H80.373C80.1277 35 79.9143 34.9093 79.733 34.728C79.5517 34.5467 79.461 34.3333 79.461 34.088V29.592L79.445 29.576L79.429 29.592L76.853 34.216C76.5543 34.7387 76.101 35 75.493 35H75.141ZM85.2035 35C84.9582 35 84.7448 34.9093 84.5635 34.728C84.3822 34.5467 84.2915 34.3333 84.2915 34.088V27.592C84.2915 27.3467 84.3822 27.1333 84.5635 26.952C84.7448 26.7707 84.9582 26.68 85.2035 26.68H85.4915C85.7368 26.68 85.9502 26.7707 86.1315 26.952C86.3128 27.1333 86.4035 27.3467 86.4035 27.592V33.32C86.4035 33.4053 86.4515 33.448 86.5475 33.448H89.2835C89.3795 33.448 89.4275 33.4053 89.4275 33.32V27.592C89.4275 27.3467 89.5128 27.1333 89.6835 26.952C89.8648 26.7707 90.0782 26.68 90.3235 26.68H90.6275C90.8728 26.68 91.0808 26.7707 91.2515 26.952C91.4328 27.1333 91.5235 27.3467 91.5235 27.592V33.32C91.5235 33.4053 91.5715 33.448 91.6675 33.448H92.1635C92.4088 33.448 92.6222 33.5387 92.8035 33.72C92.9848 33.9013 93.0755 34.1147 93.0755 34.36V36.008C93.0755 36.2533 92.9848 36.4667 92.8035 36.648C92.6222 36.8293 92.4088 36.92 92.1635 36.92H92.1155C91.8702 36.92 91.6568 36.8293 91.4755 36.648C91.2942 36.4667 91.2035 36.2533 91.2035 36.008V35.144C91.2035 35.048 91.1608 35 91.0755 35H85.2035ZM96.0629 35C95.8175 35 95.6042 34.9093 95.4229 34.728C95.2415 34.5467 95.1509 34.3333 95.1509 34.088V27.592C95.1509 27.3467 95.2415 27.1333 95.4229 26.952C95.6042 26.7707 95.8175 26.68 96.0629 26.68H96.3669C96.6122 26.68 96.8255 26.7707 97.0069 26.952C97.1882 27.1333 97.2789 27.3467 97.2789 27.592V32.088L97.2949 32.104L97.3109 32.088L99.8869 27.464C100.186 26.9413 100.639 26.68 101.247 26.68H101.599C101.844 26.68 102.058 26.7707 102.239 26.952C102.42 27.1333 102.511 27.3467 102.511 27.592V34.088C102.511 34.3333 102.42 34.5467 102.239 34.728C102.058 34.9093 101.844 35 101.599 35H101.295C101.05 35 100.836 34.9093 100.655 34.728C100.474 34.5467 100.383 34.3333 100.383 34.088V29.592L100.367 29.576L100.351 29.592L97.7749 34.216C97.4762 34.7387 97.0229 35 96.4149 35H96.0629ZM106.109 35C105.864 35 105.651 34.9093 105.469 34.728C105.299 34.5467 105.213 34.3333 105.213 34.088V27.592C105.213 27.3467 105.299 27.1333 105.469 26.952C105.651 26.7707 105.864 26.68 106.109 26.68H106.461C106.707 26.68 106.92 26.7707 107.101 26.952C107.283 27.1333 107.373 27.3467 107.373 27.592V29.736C107.373 29.832 107.421 29.88 107.517 29.88H110.205C110.301 29.88 110.349 29.832 110.349 29.736V27.592C110.349 27.3467 110.44 27.1333 110.621 26.952C110.803 26.7707 111.016 26.68 111.261 26.68H111.613C111.859 26.68 112.067 26.7707 112.237 26.952C112.419 27.1333 112.509 27.3467 112.509 27.592V34.088C112.509 34.3333 112.419 34.5467 112.237 34.728C112.067 34.9093 111.859 35 111.613 35H111.261C111.016 35 110.803 34.9093 110.621 34.728C110.44 34.5467 110.349 34.3333 110.349 34.088V31.528C110.349 31.432 110.301 31.384 110.205 31.384H107.517C107.421 31.384 107.373 31.432 107.373 31.528V34.088C107.373 34.3333 107.283 34.5467 107.101 34.728C106.92 34.9093 106.707 35 106.461 35H106.109ZM118.781 35.16C117.459 35.16 116.44 34.7973 115.725 34.072C115.011 33.336 114.653 32.2587 114.653 30.84C114.653 29.4427 114.995 28.376 115.677 27.64C116.371 26.8933 117.352 26.52 118.621 26.52C119.187 26.52 119.731 26.5573 120.253 26.632C120.499 26.664 120.701 26.776 120.861 26.968C121.021 27.16 121.101 27.384 121.101 27.64C121.101 27.8533 121.016 28.024 120.845 28.152C120.685 28.28 120.499 28.3227 120.285 28.28C119.869 28.1947 119.405 28.152 118.893 28.152C118.221 28.152 117.72 28.3653 117.389 28.792C117.059 29.2187 116.893 29.9013 116.893 30.84C116.893 31.8 117.069 32.488 117.421 32.904C117.773 33.32 118.317 33.528 119.053 33.528C119.576 33.528 120.029 33.48 120.413 33.384C120.616 33.3307 120.797 33.368 120.957 33.496C121.128 33.624 121.213 33.7893 121.213 33.992C121.213 34.248 121.133 34.472 120.973 34.664C120.824 34.856 120.627 34.9733 120.381 35.016C119.837 35.112 119.304 35.16 118.781 35.16ZM124.75 35C124.505 35 124.292 34.9093 124.11 34.728C123.929 34.5467 123.838 34.3333 123.838 34.088V27.592C123.838 27.3467 123.929 27.1333 124.11 26.952C124.292 26.7707 124.505 26.68 124.75 26.68H125.07C125.316 26.68 125.529 26.7707 125.71 26.952C125.892 27.1333 125.982 27.3467 125.982 27.592V30.072C125.982 30.0827 125.988 30.088 125.998 30.088H126.014L128.446 27.352C128.841 26.904 129.342 26.68 129.95 26.68H130.622C130.793 26.68 130.91 26.76 130.974 26.92C131.049 27.08 131.028 27.224 130.91 27.352L127.982 30.584C127.929 30.648 127.929 30.7173 127.982 30.792L130.942 34.312C131.06 34.4507 131.076 34.6 130.99 34.76C130.916 34.92 130.793 35 130.622 35H129.95C129.342 35 128.846 34.7653 128.462 34.296L126.014 31.336C126.014 31.3253 126.009 31.32 125.998 31.32C125.988 31.32 125.982 31.3253 125.982 31.336V34.088C125.982 34.3333 125.892 34.5467 125.71 34.728C125.529 34.9093 125.316 35 125.07 35H124.75ZM138.156 28.744C137.847 28.296 137.378 28.072 136.748 28.072C136.119 28.072 135.644 28.296 135.324 28.744C135.015 29.1813 134.86 29.88 134.86 30.84C134.86 31.8 135.015 32.504 135.324 32.952C135.644 33.3893 136.119 33.608 136.748 33.608C137.378 33.608 137.847 33.3893 138.156 32.952C138.476 32.504 138.636 31.8 138.636 30.84C138.636 29.88 138.476 29.1813 138.156 28.744ZM139.724 34.04C139.02 34.7867 138.028 35.16 136.748 35.16C135.468 35.16 134.471 34.7867 133.756 34.04C133.052 33.2827 132.7 32.216 132.7 30.84C132.7 29.464 133.052 28.4027 133.756 27.656C134.471 26.8987 135.468 26.52 136.748 26.52C138.028 26.52 139.02 26.8987 139.724 27.656C140.439 28.4027 140.796 29.464 140.796 30.84C140.796 32.216 140.439 33.2827 139.724 34.04ZM143.86 35C143.614 35 143.401 34.9093 143.22 34.728C143.038 34.5467 142.948 34.3333 142.948 34.088V27.592C142.948 27.3467 143.038 27.1333 143.22 26.952C143.401 26.7707 143.614 26.68 143.86 26.68H144.164C144.409 26.68 144.622 26.7707 144.804 26.952C144.985 27.1333 145.076 27.3467 145.076 27.592V32.088L145.092 32.104L145.108 32.088L147.684 27.464C147.982 26.9413 148.436 26.68 149.044 26.68H149.396C149.641 26.68 149.854 26.7707 150.036 26.952C150.217 27.1333 150.308 27.3467 150.308 27.592V34.088C150.308 34.3333 150.217 34.5467 150.036 34.728C149.854 34.9093 149.641 35 149.396 35H149.092C148.846 35 148.633 34.9093 148.452 34.728C148.27 34.5467 148.18 34.3333 148.18 34.088V29.592L148.164 29.576L148.148 29.592L145.572 34.216C145.273 34.7387 144.82 35 144.212 35H143.86ZM149.028 22.952H149.06C149.294 22.952 149.486 23.032 149.636 23.192C149.785 23.352 149.822 23.5387 149.748 23.752C149.556 24.3493 149.177 24.8293 148.612 25.192C148.057 25.544 147.396 25.72 146.628 25.72C145.86 25.72 145.193 25.544 144.628 25.192C144.073 24.8293 143.7 24.3493 143.508 23.752C143.433 23.5387 143.47 23.352 143.62 23.192C143.769 23.032 143.961 22.952 144.196 22.952H144.228C144.58 22.952 144.921 23.192 145.252 23.672C145.55 24.1093 146.009 24.328 146.628 24.328C147.246 24.328 147.705 24.1093 148.004 23.672C148.334 23.192 148.676 22.952 149.028 22.952ZM158.969 35C158.724 35 158.51 34.9093 158.329 34.728C158.148 34.5467 158.057 34.3333 158.057 34.088V27.592C158.057 27.3467 158.148 27.1333 158.329 26.952C158.51 26.7707 158.724 26.68 158.969 26.68H164.377C164.622 26.68 164.836 26.7707 165.017 26.952C165.198 27.1333 165.289 27.3467 165.289 27.592V34.088C165.289 34.3333 165.198 34.5467 165.017 34.728C164.836 34.9093 164.622 35 164.377 35H164.089C163.844 35 163.63 34.9093 163.449 34.728C163.268 34.5467 163.177 34.3333 163.177 34.088V28.424C163.177 28.328 163.134 28.28 163.049 28.28H160.297C160.212 28.28 160.169 28.328 160.169 28.424V34.088C160.169 34.3333 160.078 34.5467 159.897 34.728C159.716 34.9093 159.502 35 159.257 35H158.969ZM168.907 35C168.661 35 168.448 34.9093 168.267 34.728C168.085 34.5467 167.995 34.3333 167.995 34.088V27.592C167.995 27.3467 168.085 27.1333 168.267 26.952C168.448 26.7707 168.661 26.68 168.907 26.68H169.211C169.456 26.68 169.669 26.7707 169.851 26.952C170.032 27.1333 170.123 27.3467 170.123 27.592V32.088L170.139 32.104L170.155 32.088L172.731 27.464C173.029 26.9413 173.483 26.68 174.091 26.68H174.443C174.688 26.68 174.901 26.7707 175.083 26.952C175.264 27.1333 175.355 27.3467 175.355 27.592V34.088C175.355 34.3333 175.264 34.5467 175.083 34.728C174.901 34.9093 174.688 35 174.443 35H174.139C173.893 35 173.68 34.9093 173.499 34.728C173.317 34.5467 173.227 34.3333 173.227 34.088V29.592L173.211 29.576L173.195 29.592L170.619 34.216C170.32 34.7387 169.867 35 169.259 35H168.907ZM181.513 28.088C180.212 28.088 179.561 28.4667 179.561 29.224C179.561 30.0027 180.238 30.392 181.593 30.392H182.217C182.302 30.392 182.345 30.344 182.345 30.248V28.264C182.345 28.168 182.302 28.12 182.217 28.12C181.897 28.0987 181.662 28.088 181.513 28.088ZM179.529 31.176C178.942 31.016 178.462 30.7493 178.089 30.376C177.716 29.992 177.529 29.5387 177.529 29.016C177.529 27.384 178.825 26.568 181.417 26.568C182.078 26.568 182.793 26.5947 183.561 26.648C183.817 26.6587 184.03 26.7653 184.201 26.968C184.382 27.16 184.473 27.384 184.473 27.64V34.088C184.473 34.3333 184.382 34.5467 184.201 34.728C184.02 34.9093 183.806 35 183.561 35H183.257C183.012 35 182.798 34.9093 182.617 34.728C182.436 34.5467 182.345 34.3333 182.345 34.088V31.992C182.345 31.9067 182.302 31.864 182.217 31.864H181.689C181.273 31.864 180.985 31.9173 180.825 32.024C180.665 32.12 180.489 32.376 180.297 32.792L179.705 34.168C179.588 34.4133 179.412 34.616 179.177 34.776C178.953 34.9253 178.708 35 178.441 35H178.153C177.94 35 177.774 34.9093 177.657 34.728C177.55 34.5467 177.54 34.36 177.625 34.168L178.313 32.68C178.665 31.9227 179.076 31.4373 179.545 31.224C179.556 31.224 179.561 31.2187 179.561 31.208C179.561 31.1867 179.55 31.176 179.529 31.176ZM189.263 31.416V33.544C189.263 33.6293 189.311 33.6827 189.407 33.704C189.535 33.7253 189.738 33.736 190.015 33.736C191.284 33.736 191.919 33.3093 191.919 32.456C191.919 31.6773 191.268 31.288 189.967 31.288H189.407C189.311 31.288 189.263 31.3307 189.263 31.416ZM189.263 28.136V29.848C189.263 29.9333 189.311 29.976 189.407 29.976H189.919C190.442 29.976 190.852 29.88 191.151 29.688C191.46 29.496 191.615 29.2347 191.615 28.904C191.615 28.264 191.066 27.944 189.967 27.944C189.839 27.944 189.647 27.9547 189.391 27.976C189.306 27.9973 189.263 28.0507 189.263 28.136ZM188.047 35.032C187.791 35.0107 187.578 34.904 187.407 34.712C187.236 34.5093 187.151 34.28 187.151 34.024V27.656C187.151 27.3893 187.236 27.16 187.407 26.968C187.578 26.776 187.796 26.6693 188.063 26.648C188.682 26.5947 189.258 26.568 189.791 26.568C192.33 26.568 193.599 27.2613 193.599 28.648C193.599 29.128 193.423 29.5387 193.071 29.88C192.73 30.2107 192.26 30.4293 191.663 30.536L191.647 30.552H191.663C192.378 30.648 192.938 30.8827 193.343 31.256C193.748 31.6187 193.951 32.0667 193.951 32.6C193.951 34.2747 192.607 35.112 189.919 35.112C189.343 35.112 188.719 35.0853 188.047 35.032ZM197.094 35C196.849 35 196.635 34.9093 196.454 34.728C196.273 34.5467 196.182 34.3333 196.182 34.088V27.592C196.182 27.3467 196.273 27.1333 196.454 26.952C196.635 26.7707 196.849 26.68 197.094 26.68H197.414C197.659 26.68 197.873 26.7707 198.054 26.952C198.235 27.1333 198.326 27.3467 198.326 27.592V30.072C198.326 30.0827 198.331 30.088 198.342 30.088H198.358L200.79 27.352C201.185 26.904 201.686 26.68 202.294 26.68H202.966C203.137 26.68 203.254 26.76 203.318 26.92C203.393 27.08 203.371 27.224 203.254 27.352L200.326 30.584C200.273 30.648 200.273 30.7173 200.326 30.792L203.286 34.312C203.403 34.4507 203.419 34.6 203.334 34.76C203.259 34.92 203.137 35 202.966 35H202.294C201.686 35 201.19 34.7653 200.806 34.296L198.358 31.336C198.358 31.3253 198.353 31.32 198.342 31.32C198.331 31.32 198.326 31.3253 198.326 31.336V34.088C198.326 34.3333 198.235 34.5467 198.054 34.728C197.873 34.9093 197.659 35 197.414 35H197.094ZM206.516 35C206.271 35 206.057 34.9093 205.876 34.728C205.695 34.5467 205.604 34.3333 205.604 34.088V27.592C205.604 27.3467 205.695 27.1333 205.876 26.952C206.057 26.7707 206.271 26.68 206.516 26.68H206.82C207.065 26.68 207.279 26.7707 207.46 26.952C207.641 27.1333 207.732 27.3467 207.732 27.592V32.088L207.748 32.104L207.764 32.088L210.34 27.464C210.639 26.9413 211.092 26.68 211.7 26.68H212.052C212.297 26.68 212.511 26.7707 212.692 26.952C212.873 27.1333 212.964 27.3467 212.964 27.592V34.088C212.964 34.3333 212.873 34.5467 212.692 34.728C212.511 34.9093 212.297 35 212.052 35H211.748C211.503 35 211.289 34.9093 211.108 34.728C210.927 34.5467 210.836 34.3333 210.836 34.088V29.592L210.82 29.576L210.804 29.592L208.228 34.216C207.929 34.7387 207.476 35 206.868 35H206.516Z" fill="#99932D"/>
</svg>
